<svg xmlns="http://www.w3.org/2000/svg" xmlns:xlink="http://www.w3.org/1999/xlink" width="500" zoomAndPan="magnify" viewBox="0 0 375 374.999991" height="500" preserveAspectRatio="xMidYMid meet" version="1.0"><defs><g/><clipPath id="4e03cf8882"><path d="M 50.128906 167.898438 L 89.128906 167.898438 L 89.128906 206.898438 L 50.128906 206.898438 Z M 50.128906 167.898438 " clip-rule="nonzero"/></clipPath><clipPath id="b2c23be302"><path d="M 67 179 L 72 179 L 72 206.898438 L 67 206.898438 Z M 67 179 " clip-rule="nonzero"/></clipPath></defs><g clip-path="url(#4e03cf8882)"><path fill="#c4a02f" d="M 69.726562 167.898438 C 58.964844 167.898438 50.203125 176.664062 50.203125 187.425781 C 50.203125 196.128906 55.984375 203.910156 64.691406 206.292969 C 64.691406 200.316406 64.691406 193.625 64.691406 187.140625 L 60.21875 190.121094 L 60.21875 199.078125 C 56.835938 196.320312 54.675781 192.117188 54.675781 187.425781 C 54.675781 179.121094 61.425781 172.371094 69.726562 172.371094 C 78.03125 172.371094 84.78125 179.121094 84.78125 187.425781 C 84.78125 192.117188 82.621094 196.320312 79.238281 199.078125 L 79.238281 188.632812 L 74.765625 191.613281 C 74.765625 192.3125 74.765625 207.097656 74.765625 206.292969 C 83.46875 203.910156 89.253906 196.128906 89.253906 187.425781 C 89.253906 176.664062 80.488281 167.898438 69.726562 167.898438 Z M 69.726562 167.898438 " fill-opacity="1" fill-rule="nonzero"/></g><g clip-path="url(#b2c23be302)"><path fill="#ffffff" d="M 67.492188 206.816406 C 68.921875 206.992188 70.472656 206.992188 71.964844 206.816406 C 71.964844 197.128906 71.964844 189.929688 71.964844 179.6875 L 67.492188 182.667969 C 67.492188 197.46875 67.492188 198.378906 67.492188 206.816406 Z M 67.492188 206.816406 " fill-opacity="1" fill-rule="nonzero"/></g><g fill="#ffffff" fill-opacity="1"><g transform="translate(98.785548, 201.792602)"><g><path d="M 6.46875 -25.828125 L 6.46875 0 L 2.96875 0 L 2.96875 -25.828125 Z M 6.46875 -25.828125 "/></g></g></g><g fill="#ffffff" fill-opacity="1"><g transform="translate(112.340705, 201.792602)"><g><path d="M 24.109375 -25.828125 L 24.109375 0 L 20.5625 0 L 6.265625 -20.109375 L 6.265625 0 L 2.96875 0 L 2.96875 -25.828125 L 6.515625 -25.828125 L 20.8125 -5.4375 L 20.8125 -25.828125 Z M 24.109375 -25.828125 "/></g></g></g><g fill="#ffffff" fill-opacity="1"><g transform="translate(143.529379, 201.792602)"><g><path d="M 10.015625 0 L 0.328125 -25.828125 L 4.203125 -25.828125 L 10.140625 -9.484375 C 10.359375 -8.796875 10.628906 -7.921875 10.953125 -6.859375 C 11.285156 -5.804688 11.6875 -4.441406 12.15625 -2.765625 C 12.507812 -4.078125 12.859375 -5.320312 13.203125 -6.5 C 13.546875 -7.6875 13.851562 -8.679688 14.125 -9.484375 L 20.03125 -25.828125 L 23.8125 -25.828125 L 14.125 0 Z M 10.015625 0 "/></g></g></g><g fill="#ffffff" fill-opacity="1"><g transform="translate(171.792869, 201.792602)"><g><path d="M 20.109375 -3.296875 L 20.109375 0 L 2.96875 0 L 2.96875 -25.828125 L 19.734375 -25.828125 L 19.734375 -22.65625 L 6.46875 -22.65625 L 6.46875 -14.75 L 18.21875 -14.75 L 18.21875 -11.65625 L 6.46875 -11.65625 L 6.46875 -3.296875 Z M 20.109375 -3.296875 "/></g></g></g><g fill="#ffffff" fill-opacity="1"><g transform="translate(197.46077, 201.792602)"><g><path d="M 12.9375 -10.84375 L 6.671875 -12.3125 C 4.941406 -12.726562 3.691406 -13.4375 2.921875 -14.4375 C 2.148438 -15.445312 1.765625 -16.84375 1.765625 -18.625 C 1.765625 -21.226562 2.515625 -23.148438 4.015625 -24.390625 C 5.515625 -25.628906 7.84375 -26.25 11 -26.25 C 12.320312 -26.25 13.507812 -26.1875 14.5625 -26.0625 C 15.625 -25.9375 16.609375 -25.75 17.515625 -25.5 L 17.515625 -22.328125 C 16.359375 -22.609375 15.257812 -22.800781 14.21875 -22.90625 C 13.175781 -23.019531 12.085938 -23.078125 10.953125 -23.078125 C 8.835938 -23.078125 7.351562 -22.765625 6.5 -22.140625 C 5.65625 -21.523438 5.234375 -20.4375 5.234375 -18.875 C 5.234375 -17.882812 5.429688 -17.132812 5.828125 -16.625 C 6.222656 -16.113281 6.875 -15.75 7.78125 -15.53125 L 14.015625 -14.046875 C 16.210938 -13.523438 17.671875 -12.789062 18.390625 -11.84375 C 19.117188 -10.894531 19.484375 -9.429688 19.484375 -7.453125 C 19.484375 -4.628906 18.75 -2.625 17.28125 -1.4375 C 15.8125 -0.257812 13.484375 0.328125 10.296875 0.328125 C 8.617188 0.328125 7.003906 0.21875 5.453125 0 C 3.898438 -0.21875 2.671875 -0.503906 1.765625 -0.859375 L 1.765625 -4.15625 C 3.054688 -3.769531 4.429688 -3.472656 5.890625 -3.265625 C 7.347656 -3.066406 8.816406 -2.96875 10.296875 -2.96875 C 12.359375 -2.96875 13.800781 -3.269531 14.625 -3.875 C 15.445312 -4.476562 15.859375 -5.644531 15.859375 -7.375 C 15.859375 -8.445312 15.660156 -9.222656 15.265625 -9.703125 C 14.867188 -10.179688 14.09375 -10.5625 12.9375 -10.84375 Z M 12.9375 -10.84375 "/></g></g></g><g fill="#ffffff" fill-opacity="1"><g transform="translate(222.345877, 201.792602)"><g><path d="M 21.265625 -25.828125 L 21.265625 -22.65625 L 12.6875 -22.65625 L 12.6875 0 L 9.1875 0 L 9.1875 -22.65625 L 0.625 -22.65625 L 0.625 -25.828125 Z M 21.265625 -25.828125 "/></g></g></g><g fill="#ffffff" fill-opacity="1"><g transform="translate(248.343375, 201.792602)"><g><path d="M 6.46875 0 L 2.96875 0 L 2.96875 -25.828125 L 6.46875 -25.828125 L 6.46875 -14.703125 L 19.984375 -14.703125 L 19.984375 -25.828125 L 23.484375 -25.828125 L 23.484375 0 L 19.984375 0 L 19.984375 -11.5 L 6.46875 -11.5 Z M 6.46875 0 "/></g></g></g><g fill="#ffffff" fill-opacity="1"><g transform="translate(278.914058, 201.792602)"><g><path d="M 19.859375 -10.296875 L 19.859375 -25.828125 L 23.359375 -25.828125 L 23.359375 -10.296875 C 23.359375 -6.671875 22.515625 -3.992188 20.828125 -2.265625 C 19.140625 -0.535156 16.523438 0.328125 12.984375 0.328125 C 9.410156 0.328125 6.804688 -0.515625 5.171875 -2.203125 C 3.535156 -3.890625 2.71875 -6.585938 2.71875 -10.296875 L 2.71875 -25.828125 L 6.21875 -25.828125 L 6.21875 -10.296875 C 6.21875 -7.578125 6.71875 -5.675781 7.71875 -4.59375 C 8.726562 -3.507812 10.484375 -2.96875 12.984375 -2.96875 C 15.503906 -2.96875 17.28125 -3.507812 18.3125 -4.59375 C 19.34375 -5.675781 19.859375 -7.578125 19.859375 -10.296875 Z M 19.859375 -10.296875 "/></g></g></g><g fill="#ffffff" fill-opacity="1"><g transform="translate(309.113945, 201.792602)"><g><path d="M 21.515625 -7.421875 C 21.515625 -4.785156 20.796875 -2.890625 19.359375 -1.734375 C 17.929688 -0.578125 15.640625 0 12.484375 0 L 2.96875 0 L 2.96875 -25.828125 L 12.4375 -25.828125 C 15.300781 -25.828125 17.335938 -25.347656 18.546875 -24.390625 C 19.753906 -23.429688 20.359375 -21.785156 20.359375 -19.453125 C 20.359375 -17.773438 20.0625 -16.484375 19.46875 -15.578125 C 18.875 -14.671875 17.878906 -14.050781 16.484375 -13.71875 C 18.160156 -13.5 19.414062 -12.867188 20.25 -11.828125 C 21.09375 -10.785156 21.515625 -9.316406 21.515625 -7.421875 Z M 17.09375 -18.953125 C 17.09375 -20.378906 16.75 -21.375 16.0625 -21.9375 C 15.382812 -22.5 14.191406 -22.78125 12.484375 -22.78125 L 6.46875 -22.78125 L 6.46875 -14.703125 L 12.484375 -14.703125 C 14.128906 -14.703125 15.304688 -15.03125 16.015625 -15.6875 C 16.734375 -16.351562 17.09375 -17.441406 17.09375 -18.953125 Z M 18.125 -7.625 C 18.125 -9.164062 17.695312 -10.238281 16.84375 -10.84375 C 16 -11.445312 14.546875 -11.75 12.484375 -11.75 L 6.46875 -11.75 L 6.46875 -3.125 L 12.484375 -3.125 C 14.546875 -3.125 16 -3.453125 16.84375 -4.109375 C 17.695312 -4.773438 18.125 -5.945312 18.125 -7.625 Z M 18.125 -7.625 "/></g></g></g></svg>